<svg width="209.3" height="51.552" viewBox="0 0 406 100" class="prefix__css-1j8o68f"><switch xmlns="http://www.w3.org/2000/svg" transform="translate(-14.946 -6.445) scale(.75531)"><g xmlns:i="http://ns.adobe.com/AdobeIllustrator/10.0/" i:extraneous="self"><path d="M55.8 125v-15.1l-7.1-1.1c-2.1-.3-4-1.5-5.2-3.2-1.3-1.7-1.7-4-1.4-6.1.3-1.8.2-3.7-.5-5.5l-.2-.6c-.7-1.8-.8-3.8-.4-5.6l.7-3.3c-2.6-.1-4.9-1.4-6.3-3.6-1.4-2.2-1.5-4.9-.5-7.3l6.2-13.2c.2-.5.3-.9.3-1.3v-.7c-.4-3.2-.3-6.2.1-9l.2-1.2c0-.3.1-.6.1-.8l.3-1.3c.5-2 1.3-4.2 2.6-6.8 0-.1.1-.1.1-.2.8-1.6 1.8-3.1 2.9-4.5-7.9 2.4-14 7.3-17.7 14.2-.9 2-1.8 4-2.3 6.1l-.3 1.3v.2l-.3 1.6c-.4 2.6-.4 5.3-.1 8.1v.9c0 1-.3 2.1-.7 3l-6.2 13.2c-.5 1.1-.4 2.4.3 3.5s1.8 1.7 3.1 1.7h4.8l-1.7 8.2c-.2 1.2-.2 2.3.2 3.5l.2.6c.9 2.4 1.1 5 .6 7.6-.4 2.2 1.1 4.3 3.3 4.6l10.5 1.6v17.8l14.6-6.2c-.1-.4-.2-.7-.2-1.1z"/><path d="M71.8 118v-15.1l-7.1-1.1c-2.1-.3-4-1.5-5.2-3.2-1.3-1.7-1.7-4-1.4-6.1.3-1.8.2-3.7-.5-5.5l-.2-.6c-.7-1.8-.8-3.8-.4-5.6l.7-3.3c-2.6-.1-4.9-1.4-6.3-3.6-1.4-2.2-1.5-4.9-.5-7.3l6.2-13.2c.2-.5.3-.9.3-1.3v-.7c-.4-3.2-.3-6.2.1-9l.2-1.2c0-.3.1-.6.1-.8l.3-1.3c.5-2 1.3-4.2 2.6-6.8 0-.1.1-.1.1-.2.9-1.7 1.9-3.2 3-4.6-6.9 2.7-12.2 7.3-15.5 13.5-.9 2-1.8 4-2.3 6.1l-.3 1.3v.2l-.1 1.4c-.4 2.6-.4 5.3-.1 8.1v.9c0 1-.3 2.1-.7 3l-6.2 13.2c-.5 1.1-.4 2.4.3 3.5s1.8 1.7 3.1 1.7h4.8L45 88.6c-.2 1.2-.2 2.3.2 3.5l.2.6c.9 2.4 1.1 5 .6 7.6-.4 2.2 1.1 4.3 3.3 4.6l10.5 1.6v18l12.2-5.2c-.1-.5-.2-.9-.2-1.3z"/><path d="M115 82.7c1.3-2.8 3-4.6 4.1-5.7l.3-.3c9.6-9.6 12.8-21 9.4-33.6 0 0-.3-1.1-.3-1.5-.2-.3-.5-1.5-.5-1.6-.7-2.1-1.7-4.1-2.8-6-6.9-11.5-20.1-16.2-31.3-16.2-2 0-3.9.1-5.7.4-11 1.6-19.2 7.1-23.7 15.6-.9 2-1.8 4-2.3 6.1l-.3 1.3v.2l-.3 1.6c-.4 2.6-.4 5.3-.1 8.1v.9c0 1-.3 2.1-.7 3l-6.2 13.2c-.5 1.1-.4 2.4.3 3.5s1.8 1.7 3.1 1.7h4.8L61 81.6c-.2 1.2-.2 2.3.2 3.5l.2.6c.9 2.4 1.1 5 .6 7.6-.4 2.2 1.1 4.3 3.3 4.6l10.5 1.6v18.1l40.2-17.1c-2.8-6.9-3.1-12.9-1-17.8z"/></g></switch><path xmlns="http://www.w3.org/2000/svg" d="M103 0h3v100h-3z"/><path d="M144.55 72.337l-6.02-5.253q-4.073 0-7.319-1.388t-5.519-4.072-3.482-6.581T121 46.07q0-5.017 1.151-8.912t3.423-6.61 5.548-4.132T138.648 25t7.555 1.446 5.548 4.161 3.394 6.61 1.15 8.854q0 3.365-.56 6.345t-1.653 5.371-2.656 4.043-3.57 2.361l1.534 1.063q4.014 2.774 7.437 2.774-.118 3.01-1.8 4.87t-4.692 1.859q-2.893 0-5.785-2.42zm-5.902-40.077q-7.968 0-7.968 13.811 0 13.753 7.968 13.753 7.85 0 7.85-13.753 0-13.811-7.85-13.811zm55.659-6.375v25.44q0 7.554-4.132 11.656t-11.804 4.103-11.835-4.103-4.16-11.657V25.885l.412-.413h3.483q5.607 0 5.607 6.02v19.95q0 4.132 1.476 6.139t5.017 2.007 5.016-2.007 1.476-6.139V25.885q1.83-.354 4.722-.354 2.833 0 4.722.354zm8.5 40.313V25.885q1.829-.354 4.721-.354t4.78.354v40.313q-1.888.354-4.78.354t-4.722-.354zm17.47-9.148l13.103-18.002q2.007-2.893 4.781-5.844l-.177-.177q-4.19.531-9.149.531h-8.44q-.354-1.357-.354-3.275t.65-4.398h26.146q1.299 4.9 1.299 6.227t-1.063 2.863l-13.162 18.061q-2.006 2.833-4.603 5.548l.177.177q5.902-.413 8.853-.413h3.305q3.542 0 6.61-1.357.65 2.065.65 4.367t-1.682 3.571-4.515 1.27h-22.547q-1.063-4.723-1.063-6.11t1.181-3.04zm45.153.708q-1.594 0-2.361-.06l-2.538 8.56q-1.417.353-3.955.353-2.833 0-4.604-.649l-.295-.472 12.985-39.605q2.302-.354 5.371-.354 3.483 0 5.549.413l12.749 39.664q-2.066 1.121-4.663 1.121-3.07 0-4.309-1.062t-2.125-4.073l-1.121-3.895q-.767.059-2.302.059h-8.381zm-.177-7.437l2.36-.06h4.31q.294 0 1.032.03t1.092.03l-1.003-3.66q-1.417-4.957-3.247-12.158h-.354q-.472 2.538-2.833 11.273zm28.449-24.554q4.78-.118 8.174-.177t5.46-.059q6.434 0 10.123 2.686t3.689 8.056q0 2.597-1.476 4.84t-3.778 3.247q1.476.472 2.804 1.505t2.272 2.42 1.506 3.01.56 3.335q0 6.079-3.866 9t-10.949 2.922q-2.183 0-5.784-.059t-8.735-.177l-.413-.413V26.18zm13.811 22.665h-4.899v11.51q1.535-.06 3.453 0t3.571-.295 2.774-1.712 1.122-3.778q0-2.301-1.447-4.013t-4.574-1.712zm-4.899-16.231v9.503h4.19q2.834 0 3.985-1.387t1.15-3.394-1.18-3.335-3.954-1.328h-2.39l-1.8-.06zm41.907 26.029h10.21q0 2.361-.294 4.043t-1.89 2.892-4.19 1.21h-13.339q-2.538 0-4.014-1.475t-1.475-4.014v-35l.413-.414h3.482q5.549 0 5.549 6.02v26.974q2.597-.236 5.548-.236zm25.144-3.955l-.06 4.25v.06q2.716-.119 4.368-.119h13.694q0 2.184-.177 3.364-.709 4.545-6.02 4.545h-15.701q-2.538 0-3.984-1.475t-1.446-4.014V26.3l.413-.414h25.44q.353 1.712.353 3.719t-.826 4.19h-16.113l.059 4.25v4.132q1.534-.06 4.013-.06h9.03q.532 1.653.532 3.778t-.531 3.896h-13.044v4.485z"/></svg>