<svg xmlns="http://www.w3.org/2000/svg" version="1.1" width="260px" height="70px" style="">
    <path fill="#0C609B" fill-rule="evenodd"
        d="M9.505 49.4L.687 41.65c-.916-.8-.916-2.15 0-3L13.684 27.3c1.489-1.3 1.489-3.4 0-4.7L.687 11.3c-.916-.8-.916-2.15 0-3L9.505.6c.916-.8 2.462-.8 3.435 0l19.582 17.1c4.637 4.05 4.637 10.55 0 14.6L12.94 49.4c-.973.8-2.462.8-3.435 0z" />
    <path fill="#0C609B"
        d="M119.788.19c.533 0 1.112.556 1.112 1.113v5.293c0 .557-.356.912-.912.912l-9.743.023s-4.67.089-4.67 4.693v16.104c0 .667.666 1.223 1.445 1.223h7.83c.422 0 2.402-.444 2.402-3.647 0-2.803-2.291-3.693-2.313-3.693h-3.337c-.778 0-1.424-.623-1.424-1.401l-.022-4.649c0-.779.645-1.29 1.424-1.29h6.646c.664.012 6.366.424 6.366 10.9 0 9.986-5.605 11.12-6.295 11.12H99.235a.996.996 0 01-1.001-1V8.865C98.234 3.527 103.06.19 109.6.19zm-56.031 0c.556 0 1 .445 1 1.001v5.405c0 .557-.444.935-1 .935H52.54c-.183-.008-4.598-.134-4.598 4.026v13.968c0 4.249 4.604 4.026 4.604 4.026h11.211c.556 0 1 .379 1 .935v5.405c0 .556-.444 1-1 1H51.301c-6.562 0-10.7-3.558-10.7-8.897V8.865c0-5.338 4.16-8.675 10.7-8.675zm19.44 0c6.54 0 11.367 3.56 11.389 8.898V35.89c0 .556-.445 1-1 1h-5.25c-.556 0-1.112-.444-1.112-1V25.88H75.79v10.01c0 .556-.445 1-1.001 1h-5.361a.996.996 0 01-1.001-1V9.088c0-5.339 4.805-8.898 11.344-8.898zM6.481.19c.623 0 1.112.49 1.112 1.113V26.04c.004.14.14 3.51 4.649 3.51h1.468c.69 0 1.223-.778 1.223-1.557V1.303c0-.557.445-1.113 1.402-1.113h4.515c.956 0 1.401.556 1.401 1.113v26.691c0 .801.556 1.557 1.224 1.557h1.468c4.604 0 4.648-3.514 4.648-3.514V1.303c0-.623.49-1.113 1.113-1.113h5.249c.556 0 1 .445.979 1.001v25.936c0 5.716-3.515 9.765-10.455 9.765H10.662c-6.94 0-10.454-4.026-10.454-9.765V1.19c0-.556.445-1 1.001-1zm76.205 7.34h-2.38c-.89.023-4.427.312-4.427 4.027v6.984h11.233v-6.984c0-3.737-3.559-4.004-4.426-4.026z"
        transform="translate(45, 10)">
    </path>

    <text x="175" y="45" font-family="Open Sans" font-size="20" font-weight="bold" fill="#BD332F">Kennis</text>
</svg>